<svg width="200" height="40" viewBox="0 0 200 40" fill="none" xmlns="http://www.w3.org/2000/svg">
<path d="M40.9822 6.0066C48.8527 6.0066 55.2557 12.4451 55.2557 20.3592C55.2557 26.1401 51.8343 31.3308 46.539 33.5829C45.0565 34.2135 43.3458 33.5162 42.7187 32.0251C42.0914 30.5342 42.7851 28.8142 44.2679 28.1836C47.4011 26.8508 49.4256 23.7797 49.4256 20.3592C49.4256 15.6778 45.6379 11.8691 40.9822 11.8691C40.6165 11.8691 40.2331 11.896 39.8427 11.9487L38.0919 12.1856L37.0727 10.7347C34.9296 7.6839 31.4365 5.86235 27.7288 5.86235C22.9966 5.86235 18.8197 8.72295 17.0874 13.15L16.2468 15.2977L13.9733 14.9798C13.6448 14.9339 13.32 14.9101 13.0079 14.9101C9.18623 14.9101 6.07698 18.0359 6.07698 21.8787C6.07698 25.7215 9.18623 28.8465 13.0079 28.8465H13.8496C13.2965 28.1466 13.3474 27.0928 14.0031 26.4333C14.7147 25.7178 15.8683 25.7195 16.5798 26.4349L20.5504 30.4278C21.262 31.1432 21.262 32.3033 20.5504 33.0188L16.5798 37.0118C16.2241 37.3696 15.7578 37.5491 15.2915 37.5491C14.8252 37.5491 14.3589 37.3719 14.0031 37.0141C13.382 36.3894 13.3032 35.4181 13.767 34.7183H13.0079C5.97136 34.7183 0.246826 28.9589 0.246826 21.8833C0.246826 14.9569 5.733 9.29155 12.5654 9.05605C13.8483 6.6848 15.6647 4.64661 17.8997 3.0874C20.795 1.06763 24.1939 0 27.7288 0C32.7588 0 37.5261 2.2185 40.7881 6.00805C40.8529 6.0071 40.9176 6.0066 40.9822 6.0066ZM143.793 4.7455C143.793 3.16906 145.099 1.89942 146.667 1.89942C148.235 1.89942 149.541 3.16906 149.541 4.7455C149.541 6.36615 148.235 7.6358 146.667 7.6358C145.099 7.6358 143.793 6.36615 143.793 4.7455ZM65.0572 12.6719C66.712 10.57 70.5881 9.69425 73.2448 9.69425C77.905 9.69425 82.0418 11.6648 82.0418 17.3577V29.3132C82.0418 30.5828 80.9965 31.6342 79.7338 31.6342H79.4726C78.8627 31.6342 77.3821 31.1083 77.3821 29.4881V29.094C75.8577 30.8896 73.3756 31.8967 70.6319 31.8967C67.1911 31.8967 63.2717 29.5758 63.2717 24.8902C63.2717 20.029 67.1911 18.0147 70.6319 18.0147C73.4189 18.0147 75.901 18.9343 77.3821 20.7297V17.4893C77.3821 15.0807 75.3786 13.5919 72.504 13.5919C70.6756 13.5919 69.0204 14.0735 67.496 15.2121C67.2348 15.3872 66.8866 15.5184 66.5378 15.5184C65.6672 15.5184 64.7085 14.8181 64.7085 13.6795C64.7085 13.3288 64.8393 12.9349 65.0572 12.6719ZM72.4174 28.6561C74.4204 28.6561 76.3368 27.9554 77.3821 26.5105V23.3573C76.3368 21.9561 74.4204 21.2552 72.4174 21.2552C69.9348 21.2552 68.0189 22.6568 68.0189 24.9774C68.0189 27.2108 69.9348 28.6561 72.4174 28.6561ZM90.4453 13.3289C91.5776 11.7964 93.2323 9.9569 95.4532 9.9569C96.7164 9.9569 97.5005 10.833 97.5005 11.9716C97.5005 13.3726 96.5423 14.2487 95.2358 14.4237C93.3632 14.5989 91.5776 15.3874 90.4453 17.0077V29.3132C90.4453 30.583 89.4 31.6343 88.1368 31.6343H88.0503C86.7871 31.6343 85.7856 30.583 85.7856 29.3132V12.2341C85.7856 11.0079 86.7871 9.9569 88.1806 9.9569C89.4 9.9569 90.4453 11.0079 90.4453 12.2341V13.3289ZM115.792 9.9569C117.055 9.9569 118.056 11.0078 118.056 12.2779V37.3705C118.056 38.6407 117.055 39.6917 115.704 39.6917C114.442 39.6917 113.396 38.6407 113.396 37.3705V28.4809C111.698 30.7143 109.302 31.8967 106.69 31.8967C101.246 31.8967 97.3259 27.7364 97.3259 20.7737C97.3259 13.8105 101.246 9.69435 106.69 9.69435C109.39 9.69435 111.828 10.964 113.396 13.0662V12.2779C113.396 11.0078 114.442 9.9569 115.792 9.9569ZM113.396 24.9337V16.657C112.395 15.1244 110.174 13.8544 108.04 13.8544C104.512 13.8544 102.204 16.7447 102.204 20.7737C102.204 24.8464 104.512 27.7363 108.04 27.7363C110.174 27.7363 112.395 26.4229 113.396 24.9337ZM135.998 12.2341C135.998 11.0079 137 9.9569 138.393 9.9569C139.613 9.9569 140.658 11.0079 140.658 12.2341V29.3132C140.658 30.583 139.613 31.6343 138.306 31.6343C137 31.6343 135.998 30.583 135.998 29.3132V28.5686C134.474 30.2765 131.861 31.8968 128.551 31.8968C124.021 31.8968 121.801 29.4882 121.801 25.1966V12.2341C121.801 11.0079 122.802 9.9569 124.196 9.9569C125.415 9.9569 126.46 11.0079 126.46 12.2341V23.4886C126.46 26.7292 128.115 27.7363 130.641 27.7363C132.949 27.7363 134.909 26.4228 135.998 25.0213V12.2341ZM146.754 9.9569C147.974 9.9569 149.019 11.0079 149.019 12.2341V29.3132C149.019 30.583 147.974 31.6343 146.667 31.6343C145.361 31.6343 144.359 30.583 144.359 29.3132V12.2341C144.359 11.0079 145.361 9.9569 146.754 9.9569ZM168.441 10.0007C169.879 10.0007 170.837 11.0956 170.837 12.3217C170.837 12.5408 170.793 12.8472 170.663 13.1102L164.043 29.4442C163.477 30.7581 162.214 31.6342 160.777 31.6342H160.689C159.252 31.6342 157.946 30.7581 157.423 29.4442L150.803 13.1102C150.673 12.8472 150.629 12.5409 150.629 12.278C150.629 11.1393 151.588 10.0007 152.981 10.0007C153.939 10.0007 154.767 10.5262 155.115 11.4022L160.733 25.9412L166.307 11.4461C166.656 10.5262 167.527 10.0007 168.441 10.0007ZM171.185 20.7736C171.185 14.6427 175.627 9.6943 181.855 9.6943C186.776 9.6943 190.347 12.6719 191.654 17.2263C191.915 18.1023 192.177 19.1095 192.177 20.029C192.177 21.2552 191.175 22.3062 189.911 22.3062H176.063C176.368 25.4594 178.763 28.1307 182.682 28.1307C184.207 28.1307 185.949 27.649 187.386 26.7292C187.691 26.5543 188.039 26.4667 188.344 26.4667C189.303 26.4667 190.304 27.2547 190.304 28.3932C190.304 30.8019 184.903 31.8967 182.203 31.8967C175.889 31.8967 171.185 27.4738 171.185 20.7736ZM181.855 13.4604C178.022 13.4604 176.237 16.5256 176.019 19.0658H187.691C187.604 16.6132 185.949 13.4604 181.855 13.4604ZM196.965 9.9569C198.185 9.9569 199.23 11.0079 199.23 12.2341V29.3132C199.23 30.583 198.185 31.6343 196.878 31.6343C195.572 31.6343 194.57 30.583 194.57 29.3132V12.2341C194.57 11.0079 195.572 9.9569 196.965 9.9569ZM199.752 4.7455C199.752 6.36615 198.446 7.6358 196.878 7.6358C195.31 7.6358 194.004 6.36615 194.004 4.7455C194.004 3.16906 195.31 1.89942 196.878 1.89942C198.446 1.89942 199.752 3.16906 199.752 4.7455ZM23.5318 18.6098C23.5318 17.6587 24.2981 16.8881 25.2441 16.8881H33.8055C34.3961 16.8881 34.9358 17.1292 35.3209 17.5208L39.2079 21.4208C39.5718 21.7909 39.7985 22.303 39.7985 22.8797V35.8274C39.7985 36.7788 39.0323 37.5491 38.0863 37.5491H25.2441C24.2981 37.5491 23.5318 36.7788 23.5318 35.8274V18.6098ZM32.0932 19.0402C31.6223 19.0402 31.237 19.4276 31.237 19.9012V23.7752C31.237 24.7264 32.0033 25.4969 32.9494 25.4969H36.8021C37.2727 25.4969 37.6583 25.1095 37.6583 24.636C37.6583 24.1625 37.2727 23.7752 36.8021 23.7752H33.5914C33.2362 23.7752 32.9494 23.4868 32.9494 23.1294V19.9012C32.9494 19.4276 32.5639 19.0402 32.0932 19.0402Z" fill="#2074BA"/>
</svg>
