<svg width="59" height="40" viewBox="0 0 59 40" fill="none" xmlns="http://www.w3.org/2000/svg">
<path d="M43.0402 6.34687C43.1091 6.34586 43.1777 6.34538 43.2462 6.34538C51.6018 6.34538 58.3998 13.1468 58.3998 21.5069C58.3998 27.6136 54.7673 33.0967 49.1455 35.4758C47.5718 36.1419 45.7556 35.4053 45.0898 33.8302C44.4239 32.2553 45.1603 30.4383 46.7345 29.7722C50.0608 28.3643 52.2101 25.1201 52.2101 21.5069C52.2101 16.5616 48.189 12.5383 43.2462 12.5383C42.858 12.5383 42.451 12.5666 42.0365 12.6223L40.1778 12.8727L39.0958 11.3399C36.8206 8.11714 33.1122 6.19302 29.1759 6.19302C24.1521 6.19302 19.7176 9.21481 17.8786 13.8913L16.9863 16.1601L14.5725 15.8243C14.2238 15.7757 13.879 15.7507 13.5477 15.7507C9.49039 15.7507 6.18949 19.0525 6.18949 23.1119C6.18949 27.1713 9.49039 30.4724 13.5477 30.4724H14.4413C13.854 29.7331 13.9081 28.6199 14.6042 27.9233C15.3597 27.1675 16.5843 27.1693 17.3397 27.925L21.5551 32.1429C22.3105 32.8986 22.3105 34.1241 21.5551 34.8799L17.3397 39.098C16.9621 39.4759 16.4671 39.6655 15.9719 39.6655C15.477 39.6655 14.982 39.4784 14.6042 39.1004C13.9448 38.4404 13.8611 37.4144 14.3536 36.6751H13.5477C6.07737 36.6751 0 30.5911 0 23.1168C0 15.8 5.82434 9.81547 13.0779 9.56663C14.4399 7.06174 16.3683 4.90872 18.741 3.26164C21.8147 1.12804 25.4231 0.000244141 29.1759 0.000244141C34.5159 0.000244141 39.5772 2.34378 43.0402 6.34687ZM24.7204 19.6588C24.7204 18.654 25.534 17.8401 26.5383 17.8401H35.6274C36.2545 17.8401 36.8275 18.0948 37.2363 18.5084L41.3628 22.6282C41.7492 23.0192 41.9899 23.5602 41.9899 24.1694V37.8468C41.9899 38.8517 41.1764 39.6656 40.1721 39.6656H26.5383C25.534 39.6656 24.7204 38.8517 24.7204 37.8468V19.6588ZM33.8097 20.1135C33.3097 20.1135 32.9007 20.5228 32.9007 21.023V25.1153C32.9007 26.1201 33.7142 26.9341 34.7186 26.9341H38.8087C39.3085 26.9341 39.7177 26.5249 39.7177 26.0247C39.7177 25.5245 39.3085 25.1153 38.8087 25.1153H35.4002C35.023 25.1153 34.7186 24.8107 34.7186 24.4332V21.023C34.7186 20.5228 34.3094 20.1135 33.8097 20.1135Z" fill="#2074BA"/>
</svg>
