<svg width="16" height="16" viewBox="0 0 16 16" fill="none" xmlns="http://www.w3.org/2000/svg">
<path d="M12.2858 9.14274H11.7143C11.6308 9.14274 11.5623 9.16948 11.509 9.2232C11.4553 9.27662 11.4286 9.34507 11.4286 9.42845V12.2856C11.4286 12.6784 11.2888 13.0147 11.009 13.2945C10.7293 13.5742 10.3929 13.714 10.0001 13.714H2.57138C2.17853 13.714 1.84219 13.5742 1.56239 13.2945C1.28266 13.0147 1.1428 12.6785 1.1428 12.2856V4.85698C1.1428 4.46413 1.28262 4.12792 1.56239 3.84815C1.84219 3.56835 2.17853 3.42853 2.57138 3.42853H8.85703C8.9405 3.42853 9.00899 3.40167 9.06249 3.34816C9.116 3.29459 9.14274 3.2262 9.14274 3.14279V2.57128C9.14274 2.48803 9.116 2.41951 9.06249 2.36604C9.00899 2.31247 8.9405 2.28573 8.85703 2.28573H2.57138C1.86311 2.28573 1.25742 2.53722 0.754364 3.04019C0.251496 3.54312 0 4.14881 0 4.85708V12.2857C0 12.9939 0.251496 13.5997 0.754395 14.1025C1.25745 14.6055 1.86314 14.8571 2.57141 14.8571H10.0001C10.7083 14.8571 11.314 14.6055 11.817 14.1025C12.3201 13.5997 12.5716 12.994 12.5716 12.2857V9.42867C12.5716 9.3452 12.5448 9.27671 12.4911 9.2232C12.4375 9.16948 12.369 9.14274 12.2858 9.14274Z" fill="#0085FF"/>
<path fill-rule="evenodd" clip-rule="evenodd" d="M15.0172 1.0003C15.2932 1.00982 15.5092 1.24126 15.4997 1.51723L15.3446 6.01456C15.3351 6.29054 15.1037 6.50655 14.8277 6.49703C14.5517 6.48752 14.3357 6.25608 14.3452 5.9801L14.4587 2.68916L7.84116 8.86553C7.63929 9.05395 7.32289 9.04304 7.13447 8.84116C6.94606 8.63929 6.95697 8.32289 7.15884 8.13448L13.7764 1.95811L10.4854 1.84463C10.2095 1.83511 9.99346 1.60367 10.003 1.32769C10.0125 1.05171 10.2439 0.835704 10.5199 0.84522L15.0172 1.0003Z" fill="#0085FF"/>
</svg>
