<svg width="16" height="16" viewBox="0 0 16 16" fill="none" xmlns="http://www.w3.org/2000/svg">
<path d="M8.00003 0C7.55475 0 7.19373 0.360987 7.19373 0.806305V3.61488C7.19373 4.0602 7.55471 4.42119 8.00003 4.42119C8.44535 4.42119 8.80634 4.06024 8.80634 3.61488V0.806305C8.80634 0.361021 8.44531 0 8.00003 0Z" fill="#3CA9E1"/>
<path d="M5.46936 4.32905L3.4834 2.34309C3.16852 2.02821 2.658 2.02821 2.34309 2.34309C2.02821 2.65797 2.02821 3.16849 2.34309 3.48337L4.32908 5.46936C4.64396 5.78427 5.15448 5.78427 5.46936 5.46936C5.78423 5.15444 5.78423 4.64392 5.46936 4.32905Z" fill="#3CA9E1"/>
<path d="M3.61492 7.1936H0.806305C0.360987 7.1936 0 7.55459 0 7.99991C0 8.44523 0.360987 8.80621 0.806305 8.80621H3.61492C4.06024 8.80621 4.42122 8.44523 4.42122 7.99991C4.42119 7.55459 4.0602 7.1936 3.61492 7.1936Z" fill="#3CA9E1"/>
<path d="M5.46936 10.5306C5.15448 10.2157 4.64396 10.2157 4.32908 10.5306L2.34309 12.5166C2.02821 12.8315 2.02821 13.342 2.34309 13.6569C2.658 13.9718 3.16852 13.9718 3.4834 13.6569L5.46936 11.6709C5.78423 11.3561 5.78423 10.8455 5.46936 10.5306Z" fill="#3CA9E1"/>
<path d="M8.00003 11.5789C7.55475 11.5789 7.19373 11.9398 7.19373 12.3852V15.1937C7.19373 15.639 7.55471 16 8.00003 16C8.44535 16 8.80634 15.639 8.80634 15.1937V12.3852C8.80634 11.9399 8.44531 11.5789 8.00003 11.5789Z" fill="#3CA9E1"/>
<path d="M13.6569 12.5166L11.6709 10.5306C11.356 10.2157 10.8455 10.2157 10.5306 10.5306C10.2157 10.8455 10.2157 11.3561 10.5306 11.6709L12.5166 13.6569C12.8315 13.9718 13.342 13.9718 13.6569 13.6569C13.9717 13.342 13.9717 12.8315 13.6569 12.5166Z" fill="#3CA9E1"/>
<path d="M15.1937 7.1936H12.3851C11.9398 7.1936 11.5787 7.55456 11.5787 7.99991C11.5787 8.44523 11.9397 8.80621 12.3851 8.80621H15.1937C15.639 8.80621 16 8.44523 16 7.99991C16 7.55459 15.639 7.1936 15.1937 7.1936Z" fill="#3CA9E1"/>
<path d="M13.6569 2.34309C13.342 2.02821 12.8315 2.02821 12.5166 2.34309L10.5306 4.32905C10.2157 4.64392 10.2157 5.15444 10.5306 5.46936C10.8455 5.78427 11.356 5.78427 11.6709 5.46936L13.6569 3.48337C13.9717 3.16849 13.9717 2.65797 13.6569 2.34309Z" fill="#3CA9E1"/>
</svg>
