<svg width="16" height="16" viewBox="0 0 16 16" fill="none" xmlns="http://www.w3.org/2000/svg">
<path d="M8.00015 0C7.55487 0 7.19385 0.360987 7.19385 0.806305V3.61488C7.19385 4.0602 7.55483 4.42119 8.00015 4.42119C8.44547 4.42119 8.80646 4.06024 8.80646 3.61488V0.806305C8.80646 0.361021 8.44544 0 8.00015 0Z" fill="white"/>
<path d="M5.46936 4.32905L3.4834 2.34309C3.16852 2.02821 2.658 2.02821 2.34309 2.34309C2.02821 2.65797 2.02821 3.16849 2.34309 3.48337L4.32908 5.46936C4.64396 5.78427 5.15448 5.78427 5.46936 5.46936C5.78423 5.15444 5.78423 4.64392 5.46936 4.32905Z" fill="white"/>
<path d="M3.61492 7.1936H0.806305C0.360987 7.1936 0 7.55459 0 7.99991C0 8.44523 0.360987 8.80621 0.806305 8.80621H3.61492C4.06024 8.80621 4.42122 8.44523 4.42122 7.99991C4.42119 7.55459 4.0602 7.1936 3.61492 7.1936Z" fill="white"/>
<path d="M5.46936 10.5306C5.15448 10.2157 4.64396 10.2157 4.32908 10.5306L2.34309 12.5166C2.02821 12.8315 2.02821 13.342 2.34309 13.6569C2.658 13.9718 3.16852 13.9718 3.4834 13.6569L5.46936 11.6709C5.78423 11.3561 5.78423 10.8455 5.46936 10.5306Z" fill="white"/>
<path d="M8.00015 11.5789C7.55487 11.5789 7.19385 11.9398 7.19385 12.3852V15.1937C7.19385 15.639 7.55483 16 8.00015 16C8.44547 16 8.80646 15.639 8.80646 15.1937V12.3852C8.80646 11.9399 8.44544 11.5789 8.00015 11.5789Z" fill="white"/>
<path d="M13.6569 12.5166L11.6709 10.5306C11.356 10.2157 10.8455 10.2157 10.5306 10.5306C10.2157 10.8455 10.2157 11.3561 10.5306 11.6709L12.5166 13.6569C12.8315 13.9718 13.342 13.9718 13.6569 13.6569C13.9717 13.342 13.9717 12.8315 13.6569 12.5166Z" fill="white"/>
<path d="M15.1936 7.1936H12.385C11.9396 7.1936 11.5786 7.55456 11.5786 7.99991C11.5786 8.44523 11.9396 8.80621 12.385 8.80621H15.1936C15.6389 8.80621 15.9999 8.44523 15.9999 7.99991C15.9998 7.55459 15.6389 7.1936 15.1936 7.1936Z" fill="white"/>
<path d="M13.6569 2.34309C13.342 2.02821 12.8315 2.02821 12.5166 2.34309L10.5306 4.32905C10.2157 4.64392 10.2157 5.15444 10.5306 5.46936C10.8455 5.78427 11.356 5.78427 11.6709 5.46936L13.6569 3.48337C13.9717 3.16849 13.9717 2.65797 13.6569 2.34309Z" fill="white"/>
</svg>
