<svg width="20" height="20" viewBox="0 0 20 20" fill="none" xmlns="http://www.w3.org/2000/svg">
<path d="M17.3473 1.38088H10.552C9.43508 1.38088 8.52197 2.30618 8.52197 3.42295V5.22763C8.52197 5.50729 8.74875 5.73391 9.02841 5.73391C9.30808 5.73391 9.53469 5.50729 9.53469 5.22763V3.42295C9.53612 2.85981 9.98887 2.40168 10.552 2.3936H17.3473C17.9058 2.3936 18.3453 2.86457 18.3453 3.42295V16.5167C18.3519 17.0718 17.9074 17.527 17.3523 17.5335H10.5522C9.99124 17.5315 9.53707 17.0775 9.53469 16.5167V14.7497C9.53469 14.4699 9.30808 14.2433 9.02841 14.2433C8.74875 14.2433 8.52197 14.4699 8.52197 14.7497V16.5167C8.52498 17.6366 9.43207 18.5436 10.552 18.5463H17.3473C18.462 18.5421 19.3624 17.6347 19.358 16.5199V3.42295C19.358 2.30618 18.4642 1.38088 17.3473 1.38088V1.38088Z" fill="#FF002E"/>
<path d="M2.34609 10.4954H14.3299C14.6096 10.4954 14.8363 10.2686 14.8363 9.98891C14.8363 9.70941 14.6096 9.48263 14.3299 9.48263H2.23365L4.83156 6.47964C5.01479 6.26664 4.99198 5.9458 4.78105 5.76068C4.57058 5.57666 4.25085 5.59804 4.067 5.80834V5.80866L0.79241 9.58034C0.671739 9.67963 0.603802 9.82913 0.608237 9.98511C0.612987 10.1414 0.689634 10.2868 0.816164 10.3786L4.09107 13.6535C4.28886 13.8513 4.60954 13.8513 4.80702 13.6535C5.00228 13.4619 5.00528 13.1487 4.81383 12.9534C4.81161 12.9514 4.80939 12.9492 4.80702 12.9469L2.34609 10.4954Z" fill="#FF002E"/>
</svg>
