<svg width="24" height="24" viewBox="0 0 24 24" fill="none" xmlns="http://www.w3.org/2000/svg">
<path d="M18.1126 12.784C18.1455 12.528 18.1701 12.272 18.1701 12C18.1701 11.728 18.1455 11.472 18.1126 11.216L19.8479 9.896C20.0042 9.776 20.0453 9.56 19.9466 9.384L18.3017 6.616C18.203 6.44 17.981 6.376 17.8 6.44L15.7522 7.24C15.3245 6.92 14.8639 6.656 14.3622 6.456L14.0497 4.336C14.025 4.144 13.8523 4 13.6467 4H10.3569C10.1513 4 9.97861 4.144 9.95393 4.336L9.64141 6.456C9.13972 6.656 8.67915 6.928 8.25148 7.24L6.2036 6.44C6.01443 6.368 5.8006 6.44 5.70191 6.616L4.05702 9.384C3.9501 9.56 3.99945 9.776 4.15571 9.896L5.89107 11.216C5.85817 11.472 5.8335 11.736 5.8335 12C5.8335 12.264 5.85817 12.528 5.89107 12.784L4.15571 14.104C3.99945 14.224 3.95833 14.44 4.05702 14.616L5.70191 17.384C5.8006 17.56 6.02266 17.624 6.2036 17.56L8.25148 16.76C8.67915 17.08 9.13972 17.344 9.64141 17.544L9.95393 19.664C9.97861 19.856 10.1513 20 10.3569 20H13.6467C13.8523 20 14.025 19.856 14.0497 19.664L14.3622 17.544C14.8639 17.344 15.3245 17.072 15.7522 16.76L17.8 17.56C17.9892 17.632 18.203 17.56 18.3017 17.384L19.9466 14.616C20.0453 14.44 20.0042 14.224 19.8479 14.104L18.1126 12.784ZM12.0018 14.8C10.4145 14.8 9.12327 13.544 9.12327 12C9.12327 10.456 10.4145 9.2 12.0018 9.2C13.5891 9.2 14.8804 10.456 14.8804 12C14.8804 13.544 13.5891 14.8 12.0018 14.8Z" fill="#B3B3B3"/>
</svg>
