<svg width="10" height="10" viewBox="0 0 10 10" fill="none" xmlns="http://www.w3.org/2000/svg">
<path d="M9.19998 0.806663C8.93998 0.546663 8.51998 0.546663 8.25998 0.806663L4.99998 4.06L1.73998 0.799996C1.47998 0.539996 1.05998 0.539996 0.79998 0.799996C0.53998 1.06 0.53998 1.48 0.79998 1.74L4.05998 5L0.79998 8.26C0.53998 8.52 0.53998 8.94 0.79998 9.2C1.05998 9.46 1.47998 9.46 1.73998 9.2L4.99998 5.94L8.25998 9.2C8.51998 9.46 8.93998 9.46 9.19998 9.2C9.45998 8.94 9.45998 8.52 9.19998 8.26L5.93998 5L9.19998 1.74C9.45331 1.48666 9.45331 1.06 9.19998 0.806663Z" fill="#B3B3B3"/>
</svg>
