<svg width="20" height="20" viewBox="0 0 20 20" fill="none" xmlns="http://www.w3.org/2000/svg">
<path d="M17.5 1.66667H2.50004C1.58337 1.66667 0.833374 2.41667 0.833374 3.33334V13.3333C0.833374 14.25 1.58337 15 2.50004 15H8.33337V16.6667H7.50004C7.04171 16.6667 6.66671 17.0417 6.66671 17.5C6.66671 17.9583 7.04171 18.3333 7.50004 18.3333H12.5C12.9584 18.3333 13.3334 17.9583 13.3334 17.5C13.3334 17.0417 12.9584 16.6667 12.5 16.6667H11.6667V15H17.5C18.4167 15 19.1667 14.25 19.1667 13.3333V3.33334C19.1667 2.41667 18.4167 1.66667 17.5 1.66667ZM16.6667 13.3333H3.33337C2.87504 13.3333 2.50004 12.9583 2.50004 12.5V4.16667C2.50004 3.70834 2.87504 3.33334 3.33337 3.33334H16.6667C17.125 3.33334 17.5 3.70834 17.5 4.16667V12.5C17.5 12.9583 17.125 13.3333 16.6667 13.3333Z" fill="#1CC689"/>
</svg>
