<svg width="20" height="20" viewBox="0 0 20 20" fill="none" xmlns="http://www.w3.org/2000/svg">
<g clip-path="url(#clip0)">
<path d="M18.9763 7.90152L17.5725 7.66338C17.4263 7.19127 17.2382 6.73587 17.0085 6.30136L17.8357 5.14407C18.1866 4.65107 18.1323 3.97842 17.702 3.55227L16.457 2.30724C16.223 2.07327 15.9138 1.94376 15.5838 1.94376C15.3247 1.94376 15.0782 2.02314 14.8693 2.17354L13.7079 3.00078C13.2567 2.76264 12.7845 2.56627 12.2957 2.42004L12.0618 1.03296C11.9615 0.435514 11.4476 0.00100708 10.8418 0.00100708H9.08288C8.47707 0.00100708 7.96318 0.435514 7.86291 1.03296L7.62059 2.45347C7.15266 2.5997 6.69726 2.79188 6.26276 3.02585L5.11382 2.19861C4.90492 2.04821 4.65424 1.96882 4.39521 1.96882C4.06515 1.96882 3.7518 2.09834 3.52202 2.33231L2.27281 3.57734C1.84666 4.00349 1.78817 4.67614 2.13911 5.16914L2.9747 6.34314C2.74492 6.78183 2.56109 7.23723 2.41904 7.70934L1.03196 7.9433C0.434507 8.04357 0 8.55746 0 9.16326V10.9222C0 11.528 0.434507 12.0419 1.03196 12.1421L2.45246 12.3845C2.59869 12.8524 2.79087 13.3078 3.02484 13.7423L2.20178 14.8871C1.85083 15.3801 1.90515 16.0527 2.33548 16.4789L3.58051 17.7239C3.81447 17.9579 4.12364 18.0874 4.4537 18.0874C4.71273 18.0874 4.95923 18.008 5.16813 17.8576L6.34214 17.022C6.76411 17.2434 7.20697 17.4231 7.66237 17.5651L7.89634 18.9689C7.99661 19.5664 8.5105 20.0009 9.1163 20.0009H10.8794C11.4852 20.0009 11.9991 19.5664 12.0994 18.9689L12.3375 17.5651C12.8096 17.4189 13.265 17.2309 13.6995 17.0011L14.8568 17.8283C15.0657 17.9788 15.3164 18.0581 15.5754 18.0581C15.9055 18.0581 16.2146 17.9286 16.4486 17.6947L17.6936 16.4496C18.1198 16.0235 18.1783 15.3508 17.8273 14.8578L17.0001 13.6963C17.2299 13.2577 17.4221 12.8023 17.5641 12.3343L18.9679 12.1004C19.5654 12.0001 19.9999 11.4862 19.9999 10.8804V9.12148C20.0082 8.51568 19.5737 8.00179 18.9763 7.90152Z" fill="#0085FF"/>
<path d="M10.002 5.68214C7.62055 5.68214 5.68616 7.61654 5.68616 9.99797C5.68616 12.3794 7.62055 14.3138 10.002 14.3138C12.3834 14.3138 14.3178 12.3794 14.3178 9.99797C14.3178 7.61654 12.3834 5.68214 10.002 5.68214ZM10.002 13.1858C8.24307 13.1858 6.81421 11.7569 6.81421 9.99797C6.81421 8.23905 8.24307 6.81019 10.002 6.81019C11.7609 6.81019 13.1898 8.23905 13.1898 9.99797C13.1898 11.7569 11.7609 13.1858 10.002 13.1858Z" fill="white"/>
</g>
<defs>
<clipPath id="clip0">
<rect width="20" height="20" fill="white"/>
</clipPath>
</defs>
</svg>
