<svg width="160" height="24" viewBox="0 0 160 24" fill="none" xmlns="http://www.w3.org/2000/svg">
<path fill-rule="evenodd" clip-rule="evenodd" d="M157.358 8.99033C157.684 8.91746 157.926 8.77172 158.111 8.53854C158.295 8.30536 158.395 8.02846 158.381 7.70784C158.381 7.2852 158.267 6.96457 158.011 6.71682C157.755 6.46907 157.4 6.35248 156.946 6.35248H155.028V10.8266H155.667V9.13607H156.378C156.619 9.13607 156.79 9.15064 156.875 9.19436C156.96 9.23808 157.031 9.32552 157.088 9.47126L157.656 10.8266H158.281L157.727 9.48583L157.718 9.46403C157.665 9.34331 157.624 9.24857 157.571 9.17979C157.514 9.10692 157.443 9.04862 157.358 8.99033ZM157.755 7.69326C157.755 8.05761 157.67 8.29079 157.5 8.40738C157.329 8.52397 157.045 8.58226 156.662 8.58226H155.653V6.8917H156.861C157.187 6.8917 157.429 6.95 157.557 7.05202C157.684 7.15403 157.755 7.37264 157.755 7.69326Z" fill="#1D416E"/>
<path fill-rule="evenodd" clip-rule="evenodd" d="M154.9 5.60921C154.375 5.91526 153.963 6.3379 153.664 6.87713C153.366 7.40179 153.21 7.98474 153.21 8.62598C153.21 9.25266 153.366 9.83561 153.664 10.3748C153.963 10.9141 154.375 11.3367 154.9 11.6428C155.426 11.9488 155.994 12.1091 156.605 12.1091C157.216 12.1091 157.784 11.9488 158.31 11.6428C158.835 11.3367 159.247 10.9141 159.545 10.3748C159.844 9.83561 160 9.25266 160 8.62598C160 7.99931 159.844 7.41636 159.545 6.87713C159.247 6.3379 158.835 5.91526 158.31 5.60921C157.784 5.30316 157.216 5.14285 156.605 5.14285C155.994 5.14285 155.426 5.30316 154.9 5.60921ZM155.198 11.1035C154.786 10.8558 154.46 10.5206 154.218 10.0834C153.977 9.64615 153.863 9.16521 153.863 8.61141C153.863 8.07218 153.977 7.59125 154.218 7.15403C154.46 6.71682 154.786 6.38162 155.198 6.13387C155.61 5.88611 156.079 5.76952 156.605 5.76952C157.13 5.76952 157.599 5.88611 158.025 6.13387C158.437 6.38162 158.764 6.71682 159.006 7.15403C159.247 7.59125 159.361 8.07218 159.361 8.61141C159.361 9.16521 159.247 9.64615 159.006 10.0834C158.778 10.5206 158.452 10.8558 158.025 11.1035C157.599 11.3513 157.13 11.4679 156.605 11.4679C156.079 11.4679 155.61 11.3513 155.198 11.1035Z" fill="#1D416E"/>
<path d="M11.9186 5.1722H15.3422V7.60601H11.9186V5.1722Z" fill="#1D416E"/>
<path d="M12.1601 11.5118H10.7964L11.0663 9.12168H15.3138V18.6529H12.1601V11.5118Z" fill="#1D416E"/>
<path d="M0.213087 18.1139C0.738701 18.3617 1.36376 18.5365 2.08825 18.6677C2.81275 18.7843 3.59406 18.8572 4.40379 18.828C6.12269 18.828 7.42963 18.4928 8.32459 17.8078C9.21955 17.1229 9.65993 16.1902 9.65993 15.0097C9.65993 14.3247 9.54629 13.7418 9.3332 13.2317C9.12011 12.7216 8.73656 12.2844 8.18253 11.8909C7.62851 11.4974 6.84719 11.1622 5.83858 10.8853C5.09988 10.6813 4.54585 10.5209 4.20491 10.3898C3.86397 10.2732 3.60827 10.1275 3.45201 9.95257C3.29574 9.79225 3.21051 9.55907 3.21051 9.28217C3.21051 8.84496 3.39518 8.55348 3.79294 8.39317C4.19071 8.23286 4.78735 8.15999 5.58287 8.15999C6.73354 8.15999 7.8558 8.39317 8.93544 8.83038V6.06136C8.48085 5.90105 7.89842 5.75531 7.20233 5.65329C6.50625 5.55128 5.81016 5.49298 5.11408 5.49298C3.452 5.49298 2.17349 5.81361 1.30693 6.46943C0.440379 7.11067 0 8.05797 0 9.31132C0 9.99629 0.0994404 10.5792 0.326733 11.0456C0.554025 11.4974 0.923376 11.8909 1.42058 12.2261C1.93199 12.5467 2.61386 12.8528 3.49462 13.1151C4.34697 13.3774 4.95782 13.5669 5.32717 13.7126C5.71072 13.8583 5.98063 14.0332 6.16531 14.2227C6.34999 14.4267 6.43522 14.6891 6.43522 15.0242C6.43522 15.5198 6.26475 15.8258 5.90961 15.9861C5.55446 16.1464 4.95782 16.2193 4.10547 16.2193C3.48042 16.2193 2.82695 16.1464 2.13087 15.9861C1.43478 15.8404 0.795524 15.6218 0.213087 15.3594V18.1139Z" fill="#1D416E"/>
<path d="M20.3 9.12159H17.3736V18.6528H20.5273V12.1529C20.7546 11.9197 21.0529 11.7157 21.4081 11.5554C21.7632 11.3951 22.1042 11.3077 22.4451 11.3077C22.9991 11.3077 23.3969 11.4097 23.6242 11.6428C23.8515 11.876 23.9651 12.2549 23.9651 12.7942V18.682H27.1188V12.561C27.1188 11.3222 26.8347 10.4041 26.2807 9.82113C25.7267 9.22361 24.8601 8.93213 23.6668 8.93213C23.056 8.93213 22.4593 9.03415 21.8769 9.22361C21.2944 9.41307 20.8115 9.66082 20.3995 9.9523L20.3 9.12159Z" fill="#1D416E"/>
<path d="M28.6247 13.8875C28.6247 15.5052 29.0793 16.7439 30.0026 17.5892C30.926 18.4345 32.2329 18.8571 33.9376 18.8571C35.2445 18.8571 36.3526 18.6677 37.2475 18.2596V15.8695C36.452 16.263 35.5855 16.467 34.6337 16.467C33.6677 16.467 32.9574 16.263 32.517 15.8549C32.0767 15.4323 31.8494 14.791 31.8494 13.8875C31.8494 12.9402 32.0767 12.2844 32.5312 11.8909C32.9858 11.4974 33.6961 11.3079 34.6479 11.3079C35.6281 11.3079 36.4804 11.4828 37.2191 11.8471V9.55906C36.7503 9.32588 36.2531 9.16557 35.7559 9.06355C35.2445 8.96154 34.6621 8.91782 33.9802 8.91782C32.3182 8.91782 31.0112 9.34046 30.0595 10.1712C29.1077 11.0164 28.6247 12.2552 28.6247 13.8875Z" fill="#1D416E"/>
<path d="M41.8362 9.12185H38.853V18.6531H42.0067V12.2406C42.376 12.0512 42.8732 11.8763 43.4983 11.7014C44.1233 11.5411 44.7058 11.4245 45.2598 11.3516V8.91782C44.6631 8.97611 44.0665 9.10728 43.4699 9.31131C42.859 9.52991 42.3476 9.7631 41.9356 10.0108L41.8362 9.12185Z" fill="#1D416E"/>
<path fill-rule="evenodd" clip-rule="evenodd" d="M46.4955 10.2003C45.629 11.0456 45.1886 12.2844 45.1886 13.8875C45.1886 17.1957 46.9359 18.8571 50.4306 18.8571C53.9394 18.8571 55.6867 17.1957 55.6867 13.8875C55.6867 12.2698 55.2463 11.031 54.3798 10.1857C53.5132 9.34046 52.1921 8.91782 50.4306 8.91782C48.669 8.91782 47.3621 9.35503 46.4955 10.2003ZM52.462 13.8875C52.462 14.7473 52.3057 15.374 51.9932 15.7529C51.6807 16.1318 51.155 16.3213 50.4163 16.3213C49.6918 16.3213 49.1804 16.1318 48.8679 15.7529C48.5554 15.3886 48.3991 14.7619 48.3991 13.8875C48.3991 13.0276 48.5554 12.4009 48.8679 12.022C49.1804 11.6431 49.6918 11.4537 50.4163 11.4537C51.1408 11.4537 51.6522 11.6431 51.979 12.022C52.3057 12.3864 52.462 13.013 52.462 13.8875Z" fill="#1D416E"/>
<path d="M60.2326 9.12159H57.292V18.6528H60.4598V12.1529C60.6871 11.9197 60.9855 11.7157 61.3406 11.5554C61.6957 11.3951 62.0367 11.3077 62.3776 11.3077C62.9316 11.3077 63.3294 11.4097 63.5567 11.6428C63.784 11.876 63.8976 12.2549 63.8976 12.7942V18.682H67.0513V12.561C67.0513 11.3222 66.7672 10.4041 66.2132 9.82113C65.6592 9.22361 64.7926 8.93213 63.5993 8.93213C62.9885 8.93213 62.3918 9.03415 61.8094 9.22361C61.227 9.41307 60.744 9.66082 60.332 9.9523L60.2326 9.12159Z" fill="#1D416E"/>
<path d="M69.2106 9.12168L68.9407 11.5118H70.3329V18.6529H73.4865V9.12168H69.2106Z" fill="#1D416E"/>
<path d="M70.063 5.1722H73.4865V7.60601H70.063V5.1722Z" fill="#1D416E"/>
<path d="M75.106 16.9187L79.3961 11.6867H75.2622V9.12169H83.4022V11.0163L79.1972 16.1608H83.53V18.6529H75.106V16.9187Z" fill="#1D416E"/>
<path fill-rule="evenodd" clip-rule="evenodd" d="M85.0361 18.0847C84.4111 17.5746 84.0985 16.8314 84.0985 15.8695C84.0985 14.8785 84.4253 14.1061 85.0929 13.5523C85.7464 12.9985 86.7124 12.7216 87.9909 12.7216H90.5764V12.503C90.5764 12.0075 90.4201 11.6577 90.0934 11.4537C89.7667 11.2496 89.1842 11.1476 88.3319 11.1476C87.2664 11.1476 86.2294 11.3225 85.2208 11.6577V9.55906C85.6896 9.3696 86.2578 9.22387 86.9255 9.0927C87.5932 8.97611 88.275 8.91782 88.9853 8.91782C90.4627 8.91782 91.5992 9.22387 92.3947 9.83596C93.1903 10.4481 93.588 11.4099 93.588 12.6924V18.6385H90.8179L90.6616 17.837C89.9371 18.5074 88.8575 18.8426 87.3943 18.8426C86.4425 18.8571 85.6612 18.5948 85.0361 18.0847ZM90.5764 15.9424V14.6016H88.3461C87.8773 14.6016 87.5221 14.689 87.2949 14.8785C87.0676 15.0679 86.9539 15.3594 86.9539 15.7383C86.9539 16.4962 87.4369 16.8605 88.4029 16.8605C89.3405 16.8605 90.065 16.5545 90.5764 15.9424Z" fill="#1D416E"/>
<path d="M102.353 5.69688H105.052L110.422 13.4356V5.69688H113.604V18.653H110.876L105.507 10.9289V18.653H102.353V5.69688Z" fill="#1D416E"/>
<path fill-rule="evenodd" clip-rule="evenodd" d="M115.209 13.8875C115.209 12.2844 115.65 11.0456 116.516 10.2003C117.383 9.35503 118.69 8.91782 120.451 8.91782C122.213 8.91782 123.534 9.34046 124.4 10.1857C125.267 11.031 125.707 12.2698 125.707 13.8875C125.707 17.1957 123.96 18.8571 120.451 18.8571C116.956 18.8571 115.209 17.1957 115.209 13.8875ZM122.014 15.7529C122.326 15.374 122.483 14.7473 122.483 13.8875C122.483 13.013 122.326 12.3864 122 12.022C121.673 11.6431 121.161 11.4537 120.437 11.4537C119.712 11.4537 119.201 11.6431 118.888 12.022C118.576 12.4009 118.42 13.0276 118.42 13.8875C118.42 14.7619 118.576 15.3886 118.888 15.7529C119.201 16.1318 119.712 16.3213 120.437 16.3213C121.176 16.3213 121.701 16.1318 122.014 15.7529Z" fill="#1D416E"/>
<path d="M127.923 17.968C127.369 17.385 127.085 16.5397 127.085 15.4613V11.5701H125.835V9.1217H127.085V7.1251L130.239 6.26525V9.1217H132.497L132.355 11.5701H130.239V15.2281C130.239 15.6799 130.338 16.0005 130.551 16.19C130.764 16.3648 131.105 16.4669 131.574 16.4669C131.958 16.4669 132.341 16.394 132.725 16.2628V18.4489C132.114 18.7112 131.347 18.857 130.438 18.857C129.33 18.857 128.491 18.5509 127.923 17.968Z" fill="#1D416E"/>
<path fill-rule="evenodd" clip-rule="evenodd" d="M133.804 18.0847C133.179 17.5746 132.867 16.8314 132.867 15.8695C132.867 14.8785 133.193 14.1061 133.861 13.5523C134.515 12.9985 135.481 12.7216 136.759 12.7216H139.345V12.503C139.345 12.0075 139.188 11.6577 138.862 11.4537C138.535 11.2496 137.952 11.1476 137.1 11.1476C136.035 11.1476 134.998 11.3225 133.989 11.6577V9.55906C134.458 9.3696 135.026 9.22387 135.694 9.0927C136.361 8.97611 137.043 8.91782 137.754 8.91782C139.231 8.91782 140.367 9.22387 141.163 9.83596C141.958 10.4481 142.356 11.4099 142.356 12.6924V18.6385H139.586L139.43 17.837C138.705 18.5074 137.626 18.8426 136.162 18.8426C135.225 18.8571 134.429 18.5948 133.804 18.0847ZM139.345 15.9424V14.6016H137.114C136.645 14.6016 136.29 14.689 136.063 14.8785C135.836 15.0679 135.722 15.3594 135.722 15.7383C135.722 16.4962 136.205 16.8605 137.171 16.8605C138.109 16.8605 138.833 16.5545 139.345 15.9424Z" fill="#1D416E"/>
<path d="M145.624 18.6968C144.956 18.5948 144.416 18.4491 144.018 18.2888V15.8112C144.459 16.0007 144.984 16.1464 145.581 16.263C146.178 16.3796 146.717 16.4379 147.215 16.4379C147.825 16.4379 148.252 16.4087 148.479 16.3504C148.706 16.2921 148.82 16.1464 148.82 15.9132C148.82 15.7238 148.706 15.578 148.493 15.4469C148.266 15.3303 147.882 15.1845 147.314 15.0097L146.476 14.7328C145.567 14.4121 144.899 14.0332 144.501 13.6106C144.089 13.1879 143.89 12.5904 143.89 11.8326C143.89 9.89426 145.325 8.91782 148.209 8.91782C148.777 8.91782 149.345 8.96154 149.914 9.04898C150.482 9.13642 150.979 9.25301 151.363 9.38418V11.818C151.007 11.6577 150.596 11.5265 150.141 11.4391C149.672 11.3516 149.246 11.3079 148.834 11.3079C148.266 11.3079 147.825 11.3371 147.541 11.4099C147.257 11.4828 147.115 11.614 147.115 11.8326C147.115 12.022 147.2 12.1532 147.385 12.2406C147.56 12.3233 147.886 12.4319 148.365 12.5912L148.45 12.6196L148.557 12.6498C148.781 12.7131 149.015 12.7794 149.26 12.8673C149.999 13.1005 150.567 13.3337 150.965 13.596C151.377 13.8583 151.661 14.1644 151.831 14.5287C152.002 14.8931 152.087 15.3448 152.087 15.8987C152.087 16.8605 151.718 17.6038 150.979 18.0993C150.24 18.5948 149.161 18.8571 147.754 18.8571C146.987 18.8571 146.291 18.7988 145.624 18.6968Z" fill="#1D416E"/>
</svg>
