<svg width="240" height="60" viewBox="0 0 240 60" fill="none" xmlns="http://www.w3.org/2000/svg">
<path fill-rule="evenodd" clip-rule="evenodd" d="M236.037 43.6109C236.527 43.5046 236.889 43.2921 237.166 42.952C237.443 42.612 237.592 42.2082 237.571 41.7406C237.571 41.1243 237.4 40.6567 237.017 40.2954C236.633 39.9341 236.1 39.764 235.419 39.764H232.542V46.2888H233.501V43.8234H234.566C234.929 43.8234 235.184 43.8447 235.312 43.9084C235.44 43.9722 235.546 44.0997 235.632 44.3123L236.484 46.2888H237.422L236.591 44.3335L236.576 44.3017C236.498 44.1257 236.437 43.9875 236.356 43.8872C236.271 43.7809 236.164 43.6959 236.037 43.6109ZM236.633 41.7193C236.633 42.2507 236.505 42.5907 236.25 42.7608C235.994 42.9308 235.568 43.0158 234.992 43.0158H233.48V40.5504H235.291C235.781 40.5504 236.143 40.6354 236.335 40.7842C236.527 40.933 236.633 41.2518 236.633 41.7193Z" fill="#1D416E"/>
<path fill-rule="evenodd" clip-rule="evenodd" d="M232.35 38.6801C231.562 39.1264 230.944 39.7428 230.496 40.5292C230.049 41.2943 229.814 42.1444 229.814 43.0796C229.814 43.9935 230.049 44.8436 230.496 45.63C230.944 46.4163 231.562 47.0327 232.35 47.479C233.139 47.9253 233.991 48.1591 234.907 48.1591C235.823 48.1591 236.676 47.9253 237.464 47.479C238.253 47.0327 238.871 46.4163 239.318 45.63C239.766 44.8436 240 43.9935 240 43.0796C240 42.1657 239.766 41.3155 239.318 40.5292C238.871 39.7428 238.253 39.1264 237.464 38.6801C236.676 38.2338 235.823 38 234.907 38C233.991 38 233.139 38.2338 232.35 38.6801ZM232.798 46.6926C232.18 46.3313 231.69 45.8425 231.327 45.2049C230.965 44.5673 230.795 43.8659 230.795 43.0583C230.795 42.2719 230.965 41.5706 231.327 40.933C231.69 40.2954 232.18 39.8065 232.798 39.4452C233.416 39.0839 234.119 38.9139 234.907 38.9139C235.696 38.9139 236.399 39.0839 237.038 39.4452C237.656 39.8065 238.146 40.2954 238.508 40.933C238.871 41.5706 239.041 42.2719 239.041 43.0583C239.041 43.8659 238.871 44.5673 238.508 45.2049C238.167 45.8425 237.677 46.3313 237.038 46.6926C236.399 47.054 235.696 47.224 234.907 47.224C234.119 47.224 233.416 47.054 232.798 46.6926Z" fill="#1D416E"/>
<path d="M17.8779 38.0428H23.0133V41.5921H17.8779V38.0428Z" fill="#1D416E"/>
<path d="M18.2402 47.288H16.1946L16.5994 43.8025H22.9707V57.7022H18.2402V47.288Z" fill="#1D416E"/>
<path d="M0.31963 56.9161C1.10805 57.2774 2.04563 57.5325 3.13238 57.7237C4.21912 57.8938 5.39109 58 6.60569 57.9575C9.18404 57.9575 11.1444 57.4687 12.4869 56.4698C13.8293 55.4709 14.4899 54.1106 14.4899 52.3891C14.4899 51.3902 14.3194 50.5401 13.9998 49.7962C13.6802 49.0523 13.1048 48.4147 12.2738 47.8409C11.4428 47.267 10.2708 46.7782 8.75786 46.3744C7.64981 46.0768 6.81877 45.8431 6.30737 45.6518C5.79596 45.4817 5.4124 45.2692 5.17801 45.0142C4.94361 44.7804 4.81576 44.4403 4.81576 44.0365C4.81576 43.3989 5.09277 42.9738 5.68942 42.74C6.28606 42.5063 7.18102 42.4 8.37431 42.4C10.1003 42.4 11.7837 42.74 13.4032 43.3776V39.3395C12.7213 39.1057 11.8476 38.8932 10.8035 38.7444C9.75937 38.5956 8.71525 38.5106 7.67112 38.5106C5.17801 38.5106 3.26023 38.9782 1.9604 39.9346C0.660569 40.8697 0 42.2512 0 44.079C0 45.0779 0.149161 45.9281 0.490099 46.6082C0.831038 47.267 1.38506 47.8409 2.13087 48.3297C2.89798 48.7973 3.9208 49.2436 5.24193 49.6262C6.52045 50.0087 7.43673 50.285 7.99075 50.4976C8.56609 50.7101 8.97095 50.9651 9.24796 51.2414C9.52498 51.539 9.65283 51.9215 9.65283 52.4104C9.65283 53.133 9.39713 53.5793 8.86441 53.8131C8.33169 54.0469 7.43673 54.1532 6.15821 54.1532C5.22062 54.1532 4.24043 54.0469 3.1963 53.8131C2.15218 53.6006 1.19329 53.2818 0.31963 52.8992V56.9161Z" fill="#1D416E"/>
<path d="M30.4501 43.8023H26.0605V57.702H30.791V48.223C31.1319 47.883 31.5794 47.5854 32.1121 47.3516C32.6448 47.1179 33.1563 46.9903 33.6677 46.9903C34.4987 46.9903 35.0953 47.1391 35.4363 47.4792C35.7772 47.8192 35.9477 48.3718 35.9477 49.1582V57.7445H40.6782V48.8181C40.6782 47.0116 40.252 45.6726 39.421 44.8225C38.59 43.9511 37.2901 43.526 35.5002 43.526C34.5839 43.526 33.689 43.6748 32.8153 43.9511C31.9417 44.2274 31.2172 44.5887 30.5992 45.0138L30.4501 43.8023Z" fill="#1D416E"/>
<path d="M42.937 50.7526C42.937 53.1117 43.6189 54.9182 45.0039 56.1509C46.389 57.3836 48.3494 58 50.9064 58C52.8668 58 54.5289 57.7237 55.8713 57.1286V53.643C54.678 54.2169 53.3782 54.5144 51.9505 54.5144C50.5015 54.5144 49.4361 54.2169 48.7756 53.6218C48.115 53.0054 47.7741 52.0703 47.7741 50.7526C47.7741 49.3711 48.115 48.4147 48.7969 47.8408C49.4787 47.267 50.5442 46.9907 51.9718 46.9907C53.4421 46.9907 54.7206 47.2458 55.8287 47.7771V44.4403C55.1255 44.1002 54.3797 43.8665 53.6339 43.7177C52.8668 43.5689 51.9931 43.5052 50.9703 43.5052C48.4772 43.5052 46.5169 44.1215 45.0892 45.3329C43.6615 46.5656 42.937 48.3722 42.937 50.7526Z" fill="#1D416E"/>
<path d="M62.7543 43.8027H58.2794V57.7024H63.01V48.3509C63.564 48.0746 64.3098 47.8196 65.2474 47.5646C66.185 47.3308 67.0586 47.1607 67.8897 47.0545V43.5052C66.9947 43.5902 66.0997 43.7814 65.2048 44.079C64.2885 44.3978 63.5214 44.7379 62.9034 45.0992L62.7543 43.8027Z" fill="#1D416E"/>
<path fill-rule="evenodd" clip-rule="evenodd" d="M69.7433 45.3755C68.4435 46.6082 67.7829 48.4147 67.7829 50.7526C67.7829 55.5771 70.4039 58 75.6458 58C80.9091 58 83.53 55.5771 83.53 50.7526C83.53 48.3934 82.8695 46.5869 81.5696 45.3542C80.2698 44.1215 78.2881 43.5052 75.6458 43.5052C73.0035 43.5052 71.0431 44.1428 69.7433 45.3755ZM78.693 50.7526C78.693 52.0065 78.4586 52.9204 77.9898 53.473C77.521 54.0256 76.7326 54.3019 75.6245 54.3019C74.5378 54.3019 73.7707 54.0256 73.3019 53.473C72.8331 52.9417 72.5987 52.0278 72.5987 50.7526C72.5987 49.4986 72.8331 48.5847 73.3019 48.0321C73.7707 47.4795 74.5378 47.2032 75.6245 47.2032C76.7113 47.2032 77.4784 47.4795 77.9685 48.0321C78.4586 48.5635 78.693 49.4774 78.693 50.7526Z" fill="#1D416E"/>
<path d="M90.3488 43.8023H85.9379V57.702H90.6898V48.223C91.0307 47.883 91.4782 47.5854 92.0109 47.3516C92.5436 47.1179 93.055 46.9903 93.5664 46.9903C94.3975 46.9903 94.9941 47.1391 95.335 47.4792C95.676 47.8192 95.8465 48.3718 95.8465 49.1582V57.7445H100.577V48.8181C100.577 47.0116 100.151 45.6726 99.3198 44.8225C98.4887 43.9511 97.1889 43.526 95.399 43.526C94.4827 43.526 93.5877 43.6748 92.7141 43.9511C91.8404 44.2274 91.1159 44.5887 90.498 45.0138L90.3488 43.8023Z" fill="#1D416E"/>
<path d="M103.816 43.8025L103.411 47.288H105.499V57.7022H110.23V43.8025H103.816Z" fill="#1D416E"/>
<path d="M105.094 38.0428H110.23V41.5921H105.094V38.0428Z" fill="#1D416E"/>
<path d="M112.659 55.1731L119.094 47.5431H112.893V43.8025H125.103V46.5654L118.796 54.0679H125.295V57.7022H112.659V55.1731Z" fill="#1D416E"/>
<path fill-rule="evenodd" clip-rule="evenodd" d="M127.554 56.8736C126.617 56.1297 126.148 55.0458 126.148 53.643C126.148 52.1978 126.638 51.0714 127.639 50.2637C128.62 49.4561 130.069 49.0523 131.986 49.0523H135.865V48.7335C135.865 48.0109 135.63 47.5008 135.14 47.2032C134.65 46.9057 133.776 46.7569 132.498 46.7569C130.9 46.7569 129.344 47.012 127.831 47.5008V44.4403C128.534 44.164 129.387 43.9515 130.388 43.7602C131.39 43.5902 132.413 43.5052 133.478 43.5052C135.694 43.5052 137.399 43.9515 138.592 44.8441C139.785 45.7368 140.382 47.1395 140.382 49.0098V57.6812H136.227L135.992 56.5122C134.906 57.4899 133.286 57.9787 131.091 57.9787C129.664 58 128.492 57.6174 127.554 56.8736ZM135.865 53.7493V51.794H132.519C131.816 51.794 131.283 51.9215 130.942 52.1978C130.601 52.4741 130.431 52.8992 130.431 53.4518C130.431 54.5569 131.155 55.0883 132.604 55.0883C134.011 55.0883 135.097 54.6419 135.865 53.7493Z" fill="#1D416E"/>
<path d="M153.529 38.808H157.578L165.633 50.0935V38.808H170.406V57.7022H166.315L158.26 46.4379V57.7022H153.529V38.808Z" fill="#1D416E"/>
<path fill-rule="evenodd" clip-rule="evenodd" d="M172.814 50.7526C172.814 48.4147 173.474 46.6082 174.774 45.3755C176.074 44.1428 178.034 43.5052 180.677 43.5052C183.319 43.5052 185.301 44.1215 186.6 45.3542C187.9 46.5869 188.561 48.3934 188.561 50.7526C188.561 55.5771 185.94 58 180.677 58C175.435 58 172.814 55.5771 172.814 50.7526ZM183.021 53.473C183.489 52.9204 183.724 52.0065 183.724 50.7526C183.724 49.4774 183.489 48.5635 182.999 48.0321C182.509 47.4795 181.742 47.2032 180.655 47.2032C179.569 47.2032 178.801 47.4795 178.333 48.0321C177.864 48.5847 177.63 49.4986 177.63 50.7526C177.63 52.0278 177.864 52.9417 178.333 53.473C178.801 54.0256 179.569 54.3019 180.655 54.3019C181.763 54.3019 182.552 54.0256 183.021 53.473Z" fill="#1D416E"/>
<path d="M191.885 56.7033C191.054 55.8531 190.627 54.6204 190.627 53.0477V47.373H188.752V43.8025H190.627V40.8908L195.358 39.6368V43.8025H198.746L198.533 47.373H195.358V52.7076C195.358 53.3665 195.507 53.8341 195.827 54.1104C196.146 54.3654 196.658 54.5142 197.361 54.5142C197.936 54.5142 198.512 54.4079 199.087 54.2166V57.4046C198.171 57.7872 197.02 57.9997 195.656 57.9997C193.994 57.9997 192.737 57.5534 191.885 56.7033Z" fill="#1D416E"/>
<path fill-rule="evenodd" clip-rule="evenodd" d="M200.706 56.8736C199.769 56.1297 199.3 55.0458 199.3 53.643C199.3 52.1978 199.79 51.0714 200.792 50.2637C201.772 49.4561 203.221 49.0523 205.139 49.0523H209.017V48.7335C209.017 48.0109 208.782 47.5008 208.292 47.2032C207.802 46.9057 206.929 46.7569 205.65 46.7569C204.052 46.7569 202.496 47.012 200.983 47.5008V44.4403C201.687 44.164 202.539 43.9515 203.541 43.7602C204.542 43.5902 205.565 43.5052 206.63 43.5052C208.846 43.5052 210.551 43.9515 211.744 44.8441C212.938 45.7368 213.534 47.1395 213.534 49.0098V57.6812H209.379L209.145 56.5122C208.058 57.4899 206.439 57.9787 204.244 57.9787C202.837 58 201.644 57.6174 200.706 56.8736ZM209.017 53.7493V51.794H205.671C204.968 51.794 204.435 51.9215 204.095 52.1978C203.754 52.4741 203.583 52.8992 203.583 53.4518C203.583 54.5569 204.308 55.0883 205.757 55.0883C207.163 55.0883 208.25 54.6419 209.017 53.7493Z" fill="#1D416E"/>
<path d="M218.435 57.7662C217.434 57.6174 216.624 57.4049 216.027 57.1711V53.558C216.688 53.8343 217.476 54.0468 218.371 54.2169C219.266 54.3869 220.076 54.4719 220.822 54.4719C221.738 54.4719 222.377 54.4294 222.718 54.3444C223.059 54.2594 223.23 54.0468 223.23 53.7068C223.23 53.4305 223.059 53.218 222.74 53.0267C222.399 52.8567 221.823 52.6441 220.971 52.3891L219.714 51.9853C218.35 51.5177 217.349 50.9651 216.752 50.3488C216.134 49.7324 215.836 48.861 215.836 47.7558C215.836 44.9291 217.988 43.5052 222.313 43.5052C223.166 43.5052 224.018 43.5689 224.87 43.6964C225.723 43.824 226.469 43.994 227.044 44.1853V47.7346C226.511 47.5008 225.893 47.3095 225.211 47.182C224.508 47.0545 223.869 46.9907 223.251 46.9907C222.399 46.9907 221.738 47.0332 221.312 47.1395C220.886 47.2458 220.673 47.437 220.673 47.7558C220.673 48.0321 220.8 48.2234 221.078 48.3509C221.339 48.4714 221.829 48.6299 222.548 48.8622L222.676 48.9035L222.836 48.9476C223.171 49.0399 223.523 49.1366 223.89 49.2648C224.998 49.6049 225.851 49.9449 226.447 50.3275C227.065 50.7101 227.491 51.1564 227.747 51.6877C228.003 52.2191 228.131 52.8779 228.131 53.6855C228.131 55.0883 227.577 56.1722 226.469 56.8948C225.361 57.6174 223.741 58 221.632 58C220.481 58 219.437 57.915 218.435 57.7662Z" fill="#1D416E"/>
<path d="M84.4911 3.0033C88.4263 3.0033 91.6279 6.22257 91.6279 10.1796C91.6279 13.07 89.9172 15.6654 87.2695 16.7915C86.5283 17.1067 85.6729 16.7581 85.3594 16.0126C85.0457 15.2671 85.3926 14.4071 86.134 14.0918C87.7006 13.4254 88.7128 11.8898 88.7128 10.1796C88.7128 7.83892 86.819 5.93455 84.4911 5.93455C84.3082 5.93455 84.1165 5.948 83.9213 5.97435L83.0459 6.09282L82.5363 5.36735C81.4648 3.84195 79.7183 2.93117 77.8644 2.93117C75.4983 2.93117 73.4098 4.36147 72.5437 6.57498L72.1234 7.64885L70.9866 7.48992C70.8224 7.46693 70.66 7.45507 70.504 7.45507C68.5931 7.45507 67.0385 9.01793 67.0385 10.9394C67.0385 12.8608 68.5931 14.4232 70.504 14.4232H70.9248C70.6483 14.0733 70.6737 13.5464 71.0015 13.2167C71.3574 12.8589 71.9341 12.8597 72.2899 13.2175L74.2752 15.2139C74.631 15.5716 74.631 16.1517 74.2752 16.5094L72.2899 18.5059C72.112 18.6848 71.8789 18.7745 71.6457 18.7745C71.4126 18.7745 71.1795 18.686 71.0015 18.507C70.691 18.1947 70.6516 17.709 70.8835 17.3591H70.504C66.9857 17.3591 64.1234 14.4794 64.1234 10.9417C64.1234 7.47843 66.8665 4.64578 70.2827 4.52803C70.9242 3.3424 71.8324 2.3233 72.9499 1.5437C74.3975 0.533813 76.0969 0 77.8644 0C80.3794 0 82.7631 1.10925 84.394 3.00402C84.4265 3.00355 84.4588 3.0033 84.4911 3.0033ZM135.897 2.37275C135.897 1.58453 136.549 0.949708 137.334 0.949708C138.117 0.949708 138.771 1.58453 138.771 2.37275C138.771 3.18307 138.117 3.8179 137.334 3.8179C136.549 3.8179 135.897 3.18307 135.897 2.37275ZM96.5286 6.33595C97.356 5.285 99.294 4.84713 100.622 4.84713C102.952 4.84713 105.021 5.83238 105.021 8.67887V14.6566C105.021 15.2914 104.498 15.8171 103.867 15.8171H103.736C103.431 15.8171 102.691 15.5541 102.691 14.7441V14.547C101.929 15.4448 100.688 15.9484 99.3159 15.9484C97.5955 15.9484 95.6358 14.7879 95.6358 12.4451C95.6358 10.0145 97.5955 9.00735 99.3159 9.00735C100.709 9.00735 101.951 9.46715 102.691 10.3649V8.74463C102.691 7.54033 101.689 6.79593 100.252 6.79593C99.3378 6.79593 98.5102 7.03675 97.748 7.60607C97.6174 7.69362 97.4433 7.75922 97.2689 7.75922C96.8336 7.75922 96.3542 7.40905 96.3542 6.83973C96.3542 6.6644 96.4197 6.46745 96.5286 6.33595ZM100.209 14.328C101.21 14.328 102.168 13.9777 102.691 13.2552V11.6786C102.168 10.9781 101.21 10.6276 100.209 10.6276C98.9674 10.6276 98.0095 11.3284 98.0095 12.4887C98.0095 13.6054 98.9674 14.328 100.209 14.328ZM109.223 6.66445C109.789 5.89818 110.616 4.97845 111.727 4.97845C112.358 4.97845 112.75 5.4165 112.75 5.9858C112.75 6.68632 112.271 7.12437 111.618 7.21187C110.682 7.29945 109.789 7.69368 109.223 8.50385V14.6566C109.223 15.2915 108.7 15.8172 108.068 15.8172H108.025C107.394 15.8172 106.893 15.2915 106.893 14.6566V6.11707C106.893 5.50395 107.394 4.97845 108.09 4.97845C108.7 4.97845 109.223 5.50395 109.223 6.11707V6.66445ZM121.896 4.97845C122.527 4.97845 123.028 5.5039 123.028 6.13895V18.6853C123.028 19.3203 122.527 19.8458 121.852 19.8458C121.221 19.8458 120.698 19.3203 120.698 18.6853V14.2404C119.849 15.3572 118.651 15.9483 117.345 15.9483C114.623 15.9483 112.663 13.8682 112.663 10.3869C112.663 6.90523 114.623 4.84718 117.345 4.84718C118.695 4.84718 119.914 5.482 120.698 6.53312V6.13895C120.698 5.5039 121.221 4.97845 121.896 4.97845ZM120.698 12.4669V8.32852C120.197 7.56222 119.087 6.92718 118.02 6.92718C116.256 6.92718 115.102 8.37233 115.102 10.3869C115.102 12.4232 116.256 13.8682 118.02 13.8682C119.087 13.8682 120.197 13.2114 120.698 12.4669ZM131.999 6.11707C131.999 5.50395 132.5 4.97845 133.197 4.97845C133.806 4.97845 134.329 5.50395 134.329 6.11707V14.6566C134.329 15.2915 133.806 15.8172 133.153 15.8172C132.5 15.8172 131.999 15.2915 131.999 14.6566V14.2843C131.237 15.1383 129.93 15.9484 128.275 15.9484C126.011 15.9484 124.9 14.7441 124.9 12.5983V6.11707C124.9 5.50395 125.401 4.97845 126.098 4.97845C126.707 4.97845 127.23 5.50395 127.23 6.11707V11.7443C127.23 13.3646 128.057 13.8682 129.321 13.8682C130.475 13.8682 131.454 13.2114 131.999 12.5106V6.11707ZM137.377 4.97845C137.987 4.97845 138.509 5.50395 138.509 6.11707V14.6566C138.509 15.2915 137.987 15.8172 137.334 15.8172C136.68 15.8172 136.18 15.2915 136.18 14.6566V6.11707C136.18 5.50395 136.68 4.97845 137.377 4.97845ZM148.221 5.00035C148.939 5.00035 149.418 5.54778 149.418 6.16085C149.418 6.27042 149.397 6.42362 149.331 6.55508L146.021 14.7221C145.738 15.3791 145.107 15.8171 144.388 15.8171H144.345C143.626 15.8171 142.973 15.3791 142.711 14.7221L139.402 6.55508C139.336 6.42362 139.314 6.27043 139.314 6.13898C139.314 5.56965 139.794 5.00035 140.491 5.00035C140.969 5.00035 141.383 5.26312 141.557 5.7011L144.366 12.9706L147.154 5.72305C147.328 5.26312 147.763 5.00035 148.221 5.00035ZM149.593 10.3868C149.593 7.32137 151.814 4.84715 154.928 4.84715C157.388 4.84715 159.174 6.33595 159.827 8.61315C159.958 9.05117 160.088 9.55475 160.088 10.0145C160.088 10.6276 159.587 11.1531 158.956 11.1531H152.031C152.184 12.7297 153.381 14.0653 155.341 14.0653C156.103 14.0653 156.974 13.8245 157.693 13.3646C157.845 13.2772 158.02 13.2333 158.172 13.2333C158.651 13.2333 159.152 13.6273 159.152 14.1966C159.152 15.4009 156.452 15.9484 155.101 15.9484C151.944 15.9484 149.593 13.7369 149.593 10.3868ZM154.928 6.73018C153.011 6.73018 152.118 8.2628 152.009 9.53288H157.845C157.802 8.3066 156.974 6.73018 154.928 6.73018ZM162.483 4.97845C163.092 4.97845 163.615 5.50395 163.615 6.11707V14.6566C163.615 15.2915 163.092 15.8172 162.439 15.8172C161.786 15.8172 161.285 15.2915 161.285 14.6566V6.11707C161.285 5.50395 161.786 4.97845 162.483 4.97845ZM163.876 2.37275C163.876 3.18307 163.223 3.8179 162.439 3.8179C161.655 3.8179 161.002 3.18307 161.002 2.37275C161.002 1.58453 161.655 0.949708 162.439 0.949708C163.223 0.949708 163.876 1.58453 163.876 2.37275ZM75.7659 9.30488C75.7659 8.82933 76.149 8.44405 76.622 8.44405H80.9027C81.1981 8.44405 81.4679 8.5646 81.6605 8.76038L83.6039 10.7104C83.7859 10.8954 83.8993 11.1515 83.8993 11.4399V17.9137C83.8993 18.3894 83.5161 18.7746 83.0431 18.7746H76.622C76.149 18.7746 75.7659 18.3894 75.7659 17.9137V9.30488ZM80.0466 9.5201C79.8111 9.5201 79.6185 9.71382 79.6185 9.9506V11.8876C79.6185 12.3632 80.0017 12.7485 80.4747 12.7485H82.401C82.6364 12.7485 82.8291 12.5548 82.8291 12.318C82.8291 12.0812 82.6364 11.8876 82.401 11.8876H80.7957C80.6181 11.8876 80.4747 11.7434 80.4747 11.5647V9.9506C80.4747 9.71382 80.282 9.5201 80.0466 9.5201Z" fill="#1D416E"/>
</svg>
