<svg width="20" height="20" viewBox="0 0 20 20" fill="none" xmlns="http://www.w3.org/2000/svg">
<g clip-path="url(#clip0)">
<path d="M10 3.33333V1.84166C10 1.46666 9.55004 1.28333 9.29171 1.55L6.95837 3.875C6.79171 4.04166 6.79171 4.3 6.95837 4.46666L9.28337 6.79166C9.55004 7.05 10 6.86666 10 6.49166V5C12.7584 5 15 7.24166 15 10C15 10.6583 14.875 11.3 14.6334 11.875C14.5084 12.175 14.6 12.5167 14.825 12.7417C15.25 13.1667 15.9667 13.0167 16.1917 12.4583C16.5 11.7 16.6667 10.8667 16.6667 10C16.6667 6.31666 13.6834 3.33333 10 3.33333ZM10 15C7.24171 15 5.00004 12.7583 5.00004 10C5.00004 9.34166 5.12504 8.7 5.36671 8.125C5.49171 7.825 5.40004 7.48333 5.17504 7.25833C4.75004 6.83333 4.03337 6.98333 3.80837 7.54166C3.50004 8.3 3.33337 9.13333 3.33337 10C3.33337 13.6833 6.31671 16.6667 10 16.6667V18.1583C10 18.5333 10.45 18.7167 10.7084 18.45L13.0334 16.125C13.2 15.9583 13.2 15.7 13.0334 15.5333L10.7084 13.2083C10.45 12.95 10 13.1333 10 13.5083V15Z" fill="black"/>
</g>
<defs>
<clipPath id="clip0">
<rect width="20" height="20" fill="white"/>
</clipPath>
</defs>
</svg>
