<svg width="24" height="24" viewBox="0 0 24 24" fill="none" xmlns="http://www.w3.org/2000/svg">
<path d="M12 20V21.79C12 22.24 11.46 22.46 11.15 22.14L8.35 19.35C8.15 19.15 8.15 18.84 8.35 18.64L11.14 15.85C11.46 15.54 12 15.76 12 16.21V18C15.31 18 18 15.31 18 12C18 11.21 17.85 10.44 17.56 9.75C17.41 9.39 17.52 8.98 17.79 8.71C18.3 8.2 19.16 8.38 19.43 9.05C19.8 9.96 20 10.96 20 12C20 16.42 16.42 20 12 20ZM12 6C8.69 6 6 8.69 6 12C6 12.79 6.15 13.56 6.44 14.25C6.59 14.61 6.48 15.02 6.21 15.29C5.7 15.8 4.84 15.62 4.57 14.95C4.2 14.04 4 13.04 4 12C4 7.58 7.58 4 12 4V2.21C12 1.76 12.54 1.54 12.85 1.86L15.64 4.65C15.84 4.85 15.84 5.16 15.64 5.36L12.85 8.15C12.54 8.46 12 8.24 12 7.79V6Z" fill="white"/>
</svg>
